<svg xmlns="http://www.w3.org/2000/svg" viewBox="0 0 240 130" preserveAspectRatio="xMidYMid meet" role="img" aria-label="George Yachts">
  <title>George Yachts</title>

  <path d="M 8 56 C 70 8, 140 -2, 220 22 C 165 28, 110 38, 60 56 Z"
        fill="#C9A84C" opacity="0.95"/>
  <path d="M 30 64 C 90 28, 160 22, 232 38 C 175 50, 115 60, 50 70 Z"
        fill="#C9A84C" opacity="0.55"/>
  <path d="M 0 78 C 80 64, 175 64, 240 80 L 220 96 C 165 86, 95 86, 18 92 Z"
        fill="#F8F5F0" opacity="0.95"/>
  <path d="M 18 92 C 95 86, 165 86, 220 96 L 196 108 C 145 100, 90 100, 36 102 Z"
        fill="#F8F5F0" opacity="0.5"/>
</svg>
