<svg xmlns="http://www.w3.org/2000/svg" viewBox="0 0 180 180" width="180" height="180">
  <defs>
    <linearGradient id="gold" x1="0%" y1="0%" x2="100%" y2="100%">
      <stop offset="0%" stop-color="#F7DA6F"/>
      <stop offset="40%" stop-color="#E6C77A"/>
      <stop offset="70%" stop-color="#C9A24D"/>
      <stop offset="100%" stop-color="#A67C2E"/>
    </linearGradient>
    <linearGradient id="goldSubtle" x1="0%" y1="0%" x2="100%" y2="100%">
      <stop offset="0%" stop-color="#E6C77A" stop-opacity="0.55"/>
      <stop offset="100%" stop-color="#A67C2E" stop-opacity="0.25"/>
    </linearGradient>
  </defs>

  <rect width="180" height="180" rx="32" fill="#050505"/>
  <rect x="9" y="9" width="162" height="162" rx="26" fill="none"
        stroke="url(#goldSubtle)" stroke-width="2.4"/>

  <path
    d="M 90 34
       C 60 34, 38 55, 38 90
       C 38 125, 60 146, 90 146
       C 107 146, 121 140, 132 132
       L 132 92
       L 92 92
       L 92 106
       L 115 106
       L 115 124
       C 109 128, 100 131, 92 131
       C 70 131, 58 115, 58 90
       C 58 65, 70 49, 92 49
       C 106 49, 117 55, 126 65
       L 132 53
       C 121 41, 107 34, 90 34 Z"
    fill="url(#gold)"/>

  <line x1="78" y1="158" x2="102" y2="158" stroke="url(#gold)"
        stroke-width="2.2" stroke-linecap="round" opacity="0.6"/>
</svg>
