<svg xmlns="http://www.w3.org/2000/svg" viewBox="0 0 32 32" width="32" height="32">
  <rect width="32" height="32" fill="#000000"/>
  <defs>
    <linearGradient id="g" x1="0%" y1="0%" x2="100%" y2="0%">
      <stop offset="0%" stop-color="#F7DA6F"/>
      <stop offset="45%" stop-color="#DAA520"/>
      <stop offset="100%" stop-color="#A67C2E"/>
    </linearGradient>
    <linearGradient id="s" x1="0%" y1="0%" x2="100%" y2="0%">
      <stop offset="0%" stop-color="#C0C0C0"/>
      <stop offset="50%" stop-color="#A0A0A0"/>
      <stop offset="100%" stop-color="#808080"/>
    </linearGradient>
  </defs>
  <path d="M3 17 C5 16, 9 12, 13 10 C16 9, 19 8.5, 21 9.5 C23 10.5, 24 12, 26 13" stroke="url(#g)" stroke-width="1.8" stroke-linecap="round" fill="none"/>
  <path d="M6 19 C8.5 17, 12 13, 16 11.5 C19 10.5, 22 10, 25 11.5" stroke="url(#g)" stroke-width="1.3" stroke-linecap="round" fill="none" opacity="0.7"/>
  <path d="M14 19 C16.5 18, 20 16, 24 14.5 C26.5 14, 28.5 14, 29 15.5 C28 17.5, 26 19, 24 20 C21.5 20.5, 17 20.5, 14 19Z" fill="url(#s)" opacity="0.85"/>
  <path d="M17 18.5 C20 17, 24 15, 27 14.5 C28.5 14.2, 29 14.8, 29 15.5 C28 16.8, 26 18, 24 18.8 C21.5 19.2, 18 19, 17 18.5Z" fill="#D0D0D0" opacity="0.3"/>
</svg>
